<svg width="77" height="77" viewBox="0 0 77 77" fill="none" xmlns="http://www.w3.org/2000/svg">
<path d="M67.375 51.3333V25.6667C67.3738 24.5414 67.0768 23.4363 66.5137 22.4621C65.9506 21.4879 65.1412 20.6789 64.1667 20.1163L41.7083 7.28292C40.7329 6.71974 39.6264 6.42325 38.5 6.42325C37.3736 6.42325 36.2671 6.71974 35.2917 7.28292L12.8333 20.1163C11.8588 20.6789 11.0494 21.4879 10.4863 22.4621C9.92319 23.4363 9.62615 24.5414 9.625 25.6667V51.3333C9.62615 52.4586 9.92319 53.5637 10.4863 54.5379C11.0494 55.5121 11.8588 56.3211 12.8333 56.8838L35.2917 69.7171C36.2671 70.2803 37.3736 70.5768 38.5 70.5768C39.6264 70.5768 40.7329 70.2803 41.7083 69.7171L64.1667 56.8838C65.1412 56.3211 65.9506 55.5121 66.5137 54.5379C67.0768 53.5637 67.3738 52.4586 67.375 51.3333Z" stroke="white" stroke-width="2" stroke-linecap="round" stroke-linejoin="round"/>
<path d="M24.0625 13.5071L38.5 21.8487L52.9375 13.5071" stroke="white" stroke-width="2" stroke-linecap="round" stroke-linejoin="round"/>
<path d="M24.0625 63.4929V46.8417L9.625 38.5" stroke="white" stroke-width="2" stroke-linecap="round" stroke-linejoin="round"/>
<path d="M67.375 38.5L52.9375 46.8417V63.4929" stroke="white" stroke-width="2" stroke-linecap="round" stroke-linejoin="round"/>
<path d="M10.4913 22.33L38.5 38.5321L66.5088 22.33" stroke="white" stroke-width="2" stroke-linecap="round" stroke-linejoin="round"/>
<path d="M38.5 70.84V38.5" stroke="white" stroke-width="2" stroke-linecap="round" stroke-linejoin="round"/>
</svg>
